<svg width="407" height="112" viewBox="0 0 407 112" fill="none" xmlns="http://www.w3.org/2000/svg">
<path d="M8.98807 63.4987C8.34325 59.1085 8.71954 55.0642 10.1169 51.3659C11.5081 47.6253 13.7528 44.5572 16.8509 42.1616C19.985 39.7176 23.705 38.1793 28.0108 37.5469C33.2875 36.7719 38.009 37.5015 42.1752 39.7358C46.3414 41.9701 49.4112 45.4004 51.3844 50.0268L39.4801 51.7753C38.3208 50.048 36.8467 48.8199 35.0578 48.0908C33.311 47.3555 31.4034 47.1397 29.335 47.4435C26.0001 47.9333 23.4689 49.491 21.7414 52.1166C20.014 54.7422 19.4354 57.9968 20.0059 61.8805C20.5763 65.7641 22.0662 68.7149 24.4757 70.7329C26.8852 72.7508 29.7574 73.5149 33.0923 73.0251C35.1608 72.7213 36.9257 71.9661 38.3873 70.7596C39.891 69.5469 40.9497 67.9467 41.5634 65.9591L53.4677 64.2106C52.9081 69.209 50.9544 73.3772 47.6066 76.7151C44.2526 80.0108 39.9372 82.0462 34.6605 82.8212C30.3547 83.4536 26.3526 83.0711 22.6543 81.6737C18.992 80.2279 15.9599 77.9348 13.5581 74.7945C11.1562 71.6542 9.63289 67.8889 8.98807 63.4987Z" fill="black"/>
<path d="M88.6272 76.3182C84.4237 76.7342 80.4633 76.1401 76.7459 74.5357C73.0709 72.9272 70.0209 70.4851 67.5958 67.2093C65.2089 63.8869 63.7991 60.0391 63.3663 55.6658C62.9334 51.2925 63.5637 47.2641 65.2572 43.5808C66.9931 39.8932 69.5052 36.9006 72.7936 34.6028C76.1244 32.3009 79.8915 30.942 84.095 30.5259C88.2984 30.1099 92.2376 30.7061 95.9126 32.3147C99.63 33.919 102.659 36.3632 104.999 39.6474C107.382 42.9273 108.789 46.754 109.222 51.1273C109.655 55.5006 109.027 59.5501 107.338 63.2759C105.644 66.9593 103.153 69.9499 99.8649 72.2476C96.5765 74.5453 92.8306 75.9022 88.6272 76.3182ZM87.6438 66.3827C91.2104 66.0297 93.9375 64.5593 95.8251 61.9715C97.7552 59.3795 98.527 56.1303 98.1404 52.2241C97.7495 48.2754 96.3559 45.2405 93.9593 43.1196C91.601 40.952 88.6386 40.0447 85.072 40.3977C81.463 40.7549 78.6913 42.2083 76.757 44.7578C74.8652 47.3032 74.1168 50.5715 74.5118 54.5627C74.9026 58.5114 76.2772 61.5695 78.6355 63.7371C81.032 65.8581 84.0348 66.7399 87.6438 66.3827Z" fill="black"/>
<path d="M163.208 70.7187L152.278 71.2817L132.573 44.5481L133.998 72.2234L123.069 72.7865L120.758 27.918L131.687 27.3549L151.399 54.2163L149.967 26.4132L160.896 25.8502L163.208 70.7187Z" fill="black"/>
<path d="M187.444 34.1335L187.545 43.221L202.2 43.0575L202.294 51.505L187.639 51.6684L187.749 61.5238L204.324 61.339L204.422 70.1064L176.904 70.4133L176.403 25.4881L203.921 25.1812L204.019 33.9487L187.444 34.1335Z" fill="black"/>
<path d="M215.595 47.5134C215.725 43.078 216.799 39.161 218.819 35.7624C220.841 32.3212 223.585 29.6908 227.053 27.8712C230.565 26.0101 234.496 25.1431 238.846 25.27C244.177 25.4255 248.699 26.9661 252.413 29.8916C256.127 32.8171 258.552 36.7295 259.69 41.6288L247.663 41.2779C246.822 39.3753 245.584 37.9092 243.95 36.8798C242.357 35.8516 240.517 35.307 238.427 35.246C235.058 35.1477 232.294 36.2409 230.136 38.5256C227.977 40.8103 226.841 43.9145 226.727 47.8382C226.612 51.7618 227.566 54.927 229.587 57.3336C231.608 59.7402 234.304 60.9927 237.673 61.091C239.763 61.152 241.632 60.7156 243.281 59.782C244.973 58.8496 246.294 57.4582 247.245 55.6078L259.272 55.9587C257.85 60.7833 255.201 64.5476 251.323 67.2517C247.446 69.9131 242.843 71.1661 237.511 71.0105C233.161 70.8836 229.287 69.8102 225.888 67.7902C222.534 65.7288 219.947 62.9429 218.129 59.4324C216.31 55.9218 215.466 51.9488 215.595 47.5134Z" fill="black"/>
<path d="M306.058 29.5082L305.438 38.2542L293.564 37.4125L291.007 73.482L280.09 72.7081L282.647 36.6386L270.773 35.7968L271.393 27.0508L306.058 29.5082Z" fill="black"/>
<path d="M328.138 40.5327L327.173 49.5694L341.746 51.1254L340.85 59.5257L326.276 57.9696L325.23 67.7699L341.712 69.5298L340.781 78.2483L313.417 75.3264L318.187 30.6524L345.551 33.5742L344.62 42.2927L328.138 40.5327Z" fill="black"/>
<path d="M381.896 75.9122L365.307 73.4684L361.491 80.9279L350.157 79.2583L372.788 37.1792L385.324 39.026L394.859 85.8435L383.399 84.1552L381.896 75.9122ZM380.341 67.144L377.23 50.0601L369.387 65.5303L380.341 67.144Z" fill="black"/>
</svg>
