<svg width="407" height="112" viewBox="0 0 407 112" fill="none" xmlns="http://www.w3.org/2000/svg">
<mask id="path-1-outside-1_268_1421" maskUnits="userSpaceOnUse" x="4.33168" y="32.6182" width="53.6216" height="55.3098" fill="black">
<rect fill="white" x="4.33168" y="32.6182" width="53.6216" height="55.3098"/>
<path d="M8.98807 63.4987C8.34325 59.1085 8.71954 55.0642 10.1169 51.3659C11.5081 47.6253 13.7528 44.5572 16.8509 42.1616C19.985 39.7176 23.705 38.1793 28.0108 37.5469C33.2875 36.7719 38.009 37.5015 42.1752 39.7358C46.3414 41.9701 49.4112 45.4004 51.3844 50.0268L39.4801 51.7753C38.3208 50.048 36.8467 48.8199 35.0578 48.0908C33.311 47.3555 31.4034 47.1397 29.335 47.4435C26.0001 47.9333 23.4689 49.491 21.7414 52.1166C20.014 54.7422 19.4354 57.9968 20.0059 61.8805C20.5763 65.7641 22.0662 68.7149 24.4757 70.7329C26.8852 72.7508 29.7574 73.5149 33.0923 73.0251C35.1608 72.7213 36.9257 71.9661 38.3873 70.7596C39.891 69.5469 40.9497 67.9467 41.5634 65.9591L53.4677 64.2106C52.9081 69.209 50.9544 73.3772 47.6066 76.7151C44.2526 80.0108 39.9372 82.0462 34.6605 82.8212C30.3547 83.4536 26.3526 83.0711 22.6543 81.6737C18.992 80.2279 15.9599 77.9348 13.5581 74.7945C11.1562 71.6542 9.63289 67.8889 8.98807 63.4987Z"/>
</mask>
<path d="M10.1169 51.3659L11.0524 51.7193L11.0542 51.7145L10.1169 51.3659ZM16.8509 42.1616L17.4626 42.9527L17.4658 42.9502L16.8509 42.1616ZM42.1752 39.7358L42.6478 38.8545L42.6478 38.8545L42.1752 39.7358ZM51.3844 50.0268L51.5297 51.0162L52.8132 50.8277L52.3042 49.6345L51.3844 50.0268ZM39.4801 51.7753L38.6498 52.3326L39.0014 52.8563L39.6254 52.7646L39.4801 51.7753ZM35.0578 48.0908L34.6698 49.0125L34.6803 49.0168L35.0578 48.0908ZM21.7414 52.1166L22.5768 52.6663L21.7414 52.1166ZM24.4757 70.7329L23.8336 71.4995L24.4757 70.7329ZM38.3873 70.7596L37.7595 69.9811L37.7506 69.9884L38.3873 70.7596ZM41.5634 65.9591L41.4181 64.9697L40.794 65.0614L40.6079 65.6641L41.5634 65.9591ZM53.4677 64.2106L54.4615 64.3219L54.6058 63.0327L53.3224 63.2212L53.4677 64.2106ZM47.6066 76.7151L48.3075 77.4284L48.3126 77.4232L47.6066 76.7151ZM22.6543 81.6737L22.2871 82.6038L22.2939 82.6065L22.3008 82.6092L22.6543 81.6737ZM13.5581 74.7945L14.3524 74.187L13.5581 74.7945ZM8.98807 63.4987L9.97745 63.3534C9.35425 59.1104 9.72212 55.24 11.0524 51.7193L10.1169 51.3659L9.1815 51.0124C7.71696 54.8884 7.33224 59.1066 7.99868 63.644L8.98807 63.4987ZM10.1169 51.3659L11.0542 51.7145C12.3816 48.1454 14.5152 45.2318 17.4626 42.9527L16.8509 42.1616L16.2392 41.3705C12.9904 43.8827 10.6347 47.1053 9.17967 51.0173L10.1169 51.3659ZM16.8509 42.1616L17.4658 42.9502C20.4507 40.6225 24.0048 39.146 28.1561 38.5363L28.0108 37.5469L27.8654 36.5575C23.4051 37.2126 19.5193 38.8126 16.2359 41.373L16.8509 42.1616ZM28.0108 37.5469L28.1561 38.5363C33.249 37.7883 37.7493 38.497 41.7026 40.6171L42.1752 39.7358L42.6478 38.8545C38.2687 36.5061 33.3259 35.7555 27.8654 36.5575L28.0108 37.5469ZM42.1752 39.7358L41.7026 40.6171C45.6552 42.7368 48.5744 45.9875 50.4646 50.4191L51.3844 50.0268L52.3042 49.6345C50.2479 44.8134 47.0277 41.2034 42.6478 38.8545L42.1752 39.7358ZM51.3844 50.0268L51.2391 49.0374L39.3348 50.7859L39.4801 51.7753L39.6254 52.7646L51.5297 51.0162L51.3844 50.0268ZM39.4801 51.7753L40.3104 51.2179C39.0492 49.3388 37.4227 47.9748 35.4352 47.1647L35.0578 48.0908L34.6803 49.0168C36.2707 49.665 37.5925 50.7573 38.6498 52.3326L39.4801 51.7753ZM35.0578 48.0908L35.4458 47.1691C33.5137 46.3558 31.4195 46.1266 29.1896 46.4541L29.335 47.4435L29.4803 48.4329C31.3873 48.1528 33.1083 48.3551 34.6698 49.0124L35.0578 48.0908ZM29.335 47.4435L29.1896 46.4541C25.5956 46.982 22.8027 48.6843 20.906 51.567L21.7414 52.1166L22.5768 52.6663C24.1351 50.2978 26.4045 48.8847 29.4803 48.4329L29.335 47.4435ZM21.7414 52.1166L20.906 51.567C19.0125 54.4449 18.4196 57.9622 19.0165 62.0258L20.0059 61.8805L20.9952 61.7351C20.4513 58.0314 21.0154 55.0395 22.5768 52.6663L21.7414 52.1166ZM20.0059 61.8805L19.0165 62.0258C19.6133 66.0894 21.1926 69.2876 23.8336 71.4995L24.4757 70.7329L25.1178 69.9662C22.9399 68.1422 21.5392 65.4389 20.9952 61.7351L20.0059 61.8805ZM24.4757 70.7329L23.8336 71.4995C26.4791 73.7151 29.6436 74.5423 33.2376 74.0145L33.0923 73.0251L32.947 72.0357C29.8712 72.4874 27.2913 71.7866 25.1178 69.9662L24.4757 70.7329ZM33.0923 73.0251L33.2376 74.0145C35.4675 73.6869 37.4073 72.8653 39.0239 71.5308L38.3873 70.7596L37.7506 69.9884C36.4442 71.0669 34.854 71.7556 32.947 72.0357L33.0923 73.0251ZM38.3873 70.7596L39.015 71.538C40.6857 70.1906 41.8512 68.4165 42.5189 66.2541L41.5634 65.9591L40.6079 65.6641C40.0482 67.4768 39.0963 68.9031 37.7595 69.9812L38.3873 70.7596ZM41.5634 65.9591L41.7087 66.9485L53.613 65.2L53.4677 64.2106L53.3224 63.2212L41.4181 64.9697L41.5634 65.9591ZM53.4677 64.2106L52.4739 64.0994C51.9378 68.8874 50.0766 72.8402 46.9005 76.0069L47.6066 76.7151L48.3126 77.4232C51.8321 73.9141 53.8783 69.5306 54.4615 64.3219L53.4677 64.2106ZM47.6066 76.7151L46.9057 76.0018C43.7228 79.1294 39.6115 81.0833 34.5151 81.8318L34.6605 82.8212L34.8058 83.8106C40.2629 83.009 44.7823 80.8922 48.3074 77.4284L47.6066 76.7151ZM34.6605 82.8212L34.5151 81.8318C30.3601 82.4421 26.5314 82.0697 23.0077 80.7383L22.6543 81.6737L22.3008 82.6092C26.1737 84.0725 30.3492 84.4651 34.8058 83.8106L34.6605 82.8212ZM22.6543 81.6737L23.0215 80.7436C19.5289 79.3648 16.6443 77.1836 14.3524 74.187L13.5581 74.7945L12.7637 75.402C15.2755 78.6861 18.455 81.091 22.2871 82.6038L22.6543 81.6737ZM13.5581 74.7945L14.3524 74.187C12.0659 71.1976 10.6007 67.5964 9.97745 63.3534L8.98807 63.4987L7.99868 63.644C8.66512 68.1815 10.2465 72.1109 12.7637 75.402L13.5581 74.7945Z" fill="black" mask="url(#path-1-outside-1_268_1421)"/>
<mask id="path-3-outside-2_268_1421" maskUnits="userSpaceOnUse" x="59.8557" y="26.6599" width="53.5879" height="53.5879" fill="black">
<rect fill="white" x="59.8557" y="26.6599" width="53.5879" height="53.5879"/>
<path d="M88.6272 76.3182C84.4237 76.7342 80.4633 76.1401 76.7459 74.5357C73.0709 72.9272 70.0209 70.4851 67.5958 67.2093C65.2089 63.8869 63.7991 60.0391 63.3663 55.6658C62.9334 51.2925 63.5637 47.2641 65.2572 43.5808C66.9931 39.8932 69.5052 36.9006 72.7936 34.6028C76.1244 32.3009 79.8915 30.942 84.095 30.5259C88.2984 30.1099 92.2376 30.7061 95.9126 32.3147C99.63 33.919 102.659 36.3632 104.999 39.6474C107.382 42.9273 108.789 46.754 109.222 51.1273C109.655 55.5006 109.027 59.5501 107.338 63.2759C105.644 66.9593 103.153 69.9499 99.8649 72.2476C96.5765 74.5453 92.8306 75.9022 88.6272 76.3182ZM87.6438 66.3827C91.2104 66.0297 93.9375 64.5593 95.8251 61.9715C97.7552 59.3795 98.527 56.1303 98.1404 52.2241C97.7495 48.2754 96.3559 45.2405 93.9593 43.1196C91.601 40.952 88.6386 40.0447 85.072 40.3977C81.463 40.7549 78.6913 42.2083 76.757 44.7578C74.8652 47.3032 74.1168 50.5715 74.5118 54.5627C74.9026 58.5114 76.2772 61.5695 78.6355 63.7371C81.032 65.8581 84.0348 66.7399 87.6438 66.3827Z"/>
</mask>
<path d="M76.7459 74.5357L76.3449 75.4518L76.3496 75.4539L76.7459 74.5357ZM67.5958 67.2093L66.7836 67.7928L66.7878 67.7986L66.792 67.8043L67.5958 67.2093ZM65.2572 43.5808L64.3524 43.1548L64.3486 43.163L65.2572 43.5808ZM72.7936 34.6028L72.225 33.7802L72.2208 33.7831L72.7936 34.6028ZM95.9126 32.3147L95.5116 33.2308L95.5164 33.2328L95.9126 32.3147ZM104.999 39.6474L104.185 40.2277L104.19 40.2351L104.999 39.6474ZM107.338 63.2759L108.246 63.6937L108.248 63.6889L107.338 63.2759ZM99.8649 72.2476L100.438 73.0673L99.8649 72.2476ZM95.8251 61.9715L95.023 61.3742L95.0172 61.3822L95.8251 61.9715ZM93.9593 43.1196L93.2826 43.8558L93.2895 43.8622L93.2966 43.8684L93.9593 43.1196ZM76.757 44.7578L75.9603 44.1534L75.9544 44.1613L76.757 44.7578ZM78.6355 63.7371L77.9587 64.4734L77.9657 64.4797L77.9727 64.486L78.6355 63.7371ZM88.6272 76.3182L88.5287 75.323C84.4864 75.7231 80.697 75.1518 77.1421 73.6176L76.7459 74.5357L76.3496 75.4539C80.2296 77.1284 84.361 77.7453 88.7257 77.3133L88.6272 76.3182ZM76.7459 74.5357L77.1468 73.6196C73.6345 72.0823 70.7224 69.7521 68.3995 66.6143L67.5958 67.2093L66.792 67.8043C69.3193 71.2181 72.5073 73.7721 76.3449 75.4518L76.7459 74.5357ZM67.5958 67.2093L68.4079 66.6259C66.1312 63.4568 64.7782 59.7791 64.3614 55.5673L63.3663 55.6658L62.3711 55.7643C62.8199 60.2991 64.2866 64.317 66.7836 67.7928L67.5958 67.2093ZM63.3663 55.6658L64.3614 55.5673C63.9445 51.3553 64.5527 47.5071 66.1657 43.9985L65.2572 43.5808L64.3486 43.163C62.5748 47.0212 61.9223 51.2296 62.3711 55.7643L63.3663 55.6658ZM65.2572 43.5808L66.1619 44.0067C67.8247 40.4745 70.2235 37.6186 73.3663 35.4226L72.7936 34.6028L72.2208 33.7831C68.7869 36.1825 66.1615 39.3119 64.3524 43.1549L65.2572 43.5808ZM72.7936 34.6028L73.3621 35.4255C76.5473 33.2242 80.1512 31.9211 84.1935 31.5211L84.095 30.5259L83.9965 29.5308C79.6318 29.9628 75.7015 31.3776 72.225 33.7802L72.7936 34.6028ZM84.095 30.5259L84.1935 31.5211C88.2358 31.121 92.002 31.6946 95.5116 33.2308L95.9126 32.3147L96.3136 31.3986C92.4733 29.7177 88.3611 29.0988 83.9965 29.5308L84.095 30.5259ZM95.9126 32.3147L95.5164 33.2328C99.0669 34.7651 101.951 37.0929 104.185 40.2277L104.999 39.6474L105.813 39.0671C103.367 35.6336 100.193 33.0729 96.3089 31.3965L95.9126 32.3147ZM104.999 39.6474L104.19 40.2351C106.46 43.3594 107.81 47.0138 108.227 51.2257L109.222 51.1273L110.217 51.0288C109.769 46.4941 108.304 42.4952 105.808 39.0597L104.999 39.6474ZM109.222 51.1273L108.227 51.2257C108.644 55.4376 108.038 59.3091 106.427 62.863L107.338 63.2759L108.248 63.6889C110.016 59.7911 110.666 55.5636 110.217 51.0288L109.222 51.1273ZM107.338 63.2759L106.429 62.8582C104.809 66.3819 102.433 69.2331 99.2921 71.4279L99.8649 72.2476L100.438 73.0673C103.873 70.6667 106.479 67.5367 108.246 63.6937L107.338 63.2759ZM99.8649 72.2476L99.2921 71.4279C96.1517 73.6222 92.571 74.923 88.5287 75.323L88.6272 76.3182L88.7257 77.3133C93.0903 76.8813 97.0013 75.4684 100.438 73.0673L99.8649 72.2476ZM87.6438 66.3827L87.7423 67.3779C91.5548 67.0005 94.5565 65.4076 96.633 62.5608L95.8251 61.9715L95.0172 61.3822C93.3185 63.7111 90.866 65.0589 87.5453 65.3876L87.6438 66.3827ZM95.8251 61.9715L96.6272 62.5687C98.7365 59.736 99.5411 56.2238 99.1355 52.1256L98.1404 52.2241L97.1452 52.3226C97.5128 56.0369 96.7739 59.0229 95.0231 61.3743L95.8251 61.9715ZM98.1404 52.2241L99.1355 52.1256C98.7261 47.989 97.25 44.6965 94.622 42.3707L93.9593 43.1196L93.2966 43.8684C95.4617 45.7846 96.773 48.5618 97.1452 52.3226L98.1404 52.2241ZM93.9593 43.1196L94.636 42.3833C92.0417 39.9988 88.786 39.0252 84.9735 39.4025L85.072 40.3977L85.1705 41.3928C88.4911 41.0642 91.1603 41.9051 93.2826 43.8558L93.9593 43.1196ZM85.072 40.3977L84.9735 39.4025C81.1282 39.7831 78.0861 41.3515 75.9604 44.1534L76.757 44.7578L77.5537 45.3623C79.2966 43.065 81.7977 41.7266 85.1705 41.3928L85.072 40.3977ZM76.757 44.7578L75.9544 44.1613C73.878 46.9551 73.1039 50.4904 73.5167 54.6611L74.5118 54.5627L75.5069 54.4642C75.1297 50.6526 75.8524 47.6513 77.5596 45.3544L76.757 44.7578ZM74.5118 54.5627L73.5167 54.6611C73.9257 58.7935 75.3791 62.1023 77.9587 64.4734L78.6355 63.7371L79.3122 63.0009C77.1752 61.0367 75.8796 58.2292 75.5069 54.4642L74.5118 54.5627ZM78.6355 63.7371L77.9727 64.486C80.6065 66.8168 83.897 67.7585 87.7423 67.3779L87.6438 66.3827L87.5453 65.3876C84.1726 65.7214 81.4576 64.8993 79.2982 62.9883L78.6355 63.7371Z" fill="black" mask="url(#path-3-outside-2_268_1421)"/>
<mask id="path-5-outside-3_268_1421" maskUnits="userSpaceOnUse" x="118.737" y="24.6849" width="46.3598" height="49.2015" fill="black">
<rect fill="white" x="118.737" y="24.6849" width="46.3598" height="49.2015"/>
<path d="M163.208 70.7187L152.278 71.2817L132.573 44.5481L133.998 72.2234L123.069 72.7865L120.758 27.918L131.687 27.3549L151.399 54.2163L149.967 26.4132L160.896 25.8502L163.208 70.7187Z"/>
</mask>
<path d="M163.208 70.7187L163.259 71.7174L164.258 71.6659L164.206 70.6672L163.208 70.7187ZM152.278 71.2817L151.473 71.8751L151.792 72.3081L152.33 72.2804L152.278 71.2817ZM132.573 44.5481L133.378 43.9548L131.403 41.2756L131.574 44.5996L132.573 44.5481ZM133.998 72.2234L134.05 73.2221L135.049 73.1706L134.997 72.172L133.998 72.2234ZM123.069 72.7865L122.07 72.8379L122.122 73.8366L123.12 73.7851L123.069 72.7865ZM120.758 27.918L120.706 26.9193L119.707 26.9707L119.759 27.9694L120.758 27.918ZM131.687 27.3549L132.493 26.7633L132.174 26.3285L131.636 26.3562L131.687 27.3549ZM151.399 54.2163L150.593 54.808L152.57 57.5017L152.398 54.1649L151.399 54.2163ZM149.967 26.4132L149.915 25.4145L148.917 25.466L148.968 26.4647L149.967 26.4132ZM160.896 25.8502L161.895 25.7987L161.844 24.8L160.845 24.8515L160.896 25.8502ZM163.208 70.7187L163.156 69.72L152.227 70.283L152.278 71.2817L152.33 72.2804L163.259 71.7174L163.208 70.7187ZM152.278 71.2817L153.083 70.6884L133.378 43.9548L132.573 44.5481L131.768 45.1415L151.473 71.8751L152.278 71.2817ZM132.573 44.5481L131.574 44.5996L133 72.2749L133.998 72.2234L134.997 72.172L133.571 44.4967L132.573 44.5481ZM133.998 72.2234L133.947 71.2247L123.018 71.7878L123.069 72.7865L123.12 73.7851L134.05 73.2221L133.998 72.2234ZM123.069 72.7865L124.068 72.735L121.756 27.8665L120.758 27.918L119.759 27.9694L122.07 72.8379L123.069 72.7865ZM120.758 27.918L120.809 28.9166L131.738 28.3536L131.687 27.3549L131.636 26.3562L120.706 26.9193L120.758 27.918ZM131.687 27.3549L130.881 27.9465L150.593 54.808L151.399 54.2163L152.205 53.6247L132.493 26.7633L131.687 27.3549ZM151.399 54.2163L152.398 54.1649L150.965 26.3618L149.967 26.4132L148.968 26.4647L150.4 54.2678L151.399 54.2163ZM149.967 26.4132L150.018 27.4119L160.948 26.8488L160.896 25.8502L160.845 24.8515L149.915 25.4145L149.967 26.4132ZM160.896 25.8502L159.898 25.9016L162.209 70.7701L163.208 70.7187L164.206 70.6672L161.895 25.7987L160.896 25.8502Z" fill="black" mask="url(#path-5-outside-3_268_1421)"/>
<mask id="path-7-outside-4_268_1421" maskUnits="userSpaceOnUse" x="174.423" y="24.0924" width="31.5222" height="47.3428" fill="black">
<rect fill="white" x="174.423" y="24.0924" width="31.5222" height="47.3428"/>
<path d="M187.444 34.1335L187.545 43.221L202.2 43.0575L202.294 51.505L187.639 51.6684L187.749 61.5238L204.324 61.339L204.422 70.1064L176.904 70.4133L176.403 25.4881L203.921 25.1812L204.019 33.9487L187.444 34.1335Z"/>
</mask>
<path d="M187.444 34.1335L187.433 33.1336L186.433 33.1447L186.444 34.1447L187.444 34.1335ZM187.545 43.221L186.545 43.2321L186.556 44.232L187.556 44.2209L187.545 43.221ZM202.2 43.0575L203.2 43.0464L203.189 42.0464L202.189 42.0576L202.2 43.0575ZM202.294 51.505L202.306 52.5049L203.305 52.4938L203.294 51.4938L202.294 51.505ZM187.639 51.6684L187.628 50.6685L186.628 50.6796L186.639 51.6796L187.639 51.6684ZM187.749 61.5238L186.749 61.535L186.76 62.5349L187.76 62.5237L187.749 61.5238ZM204.324 61.339L205.324 61.3278L205.313 60.3279L204.313 60.339L204.324 61.339ZM204.422 70.1064L204.433 71.1064L205.433 71.0952L205.422 70.0953L204.422 70.1064ZM176.904 70.4133L175.904 70.4245L175.915 71.4244L176.915 71.4133L176.904 70.4133ZM176.403 25.4881L176.391 24.4882L175.392 24.4993L175.403 25.4993L176.403 25.4881ZM203.921 25.1812L204.921 25.1701L204.91 24.1701L203.91 24.1813L203.921 25.1812ZM204.019 33.9487L204.03 34.9486L205.03 34.9375L205.019 33.9375L204.019 33.9487ZM187.444 34.1335L186.444 34.1447L186.545 43.2321L187.545 43.221L188.545 43.2098L188.444 34.1224L187.444 34.1335ZM187.545 43.221L187.556 44.2209L202.211 44.0575L202.2 43.0575L202.189 42.0576L187.534 42.221L187.545 43.221ZM202.2 43.0575L201.2 43.0687L201.294 51.5161L202.294 51.505L203.294 51.4938L203.2 43.0464L202.2 43.0575ZM202.294 51.505L202.283 50.505L187.628 50.6685L187.639 51.6684L187.65 52.6684L202.306 52.5049L202.294 51.505ZM187.639 51.6684L186.639 51.6796L186.749 61.535L187.749 61.5238L188.749 61.5127L188.639 51.6573L187.639 51.6684ZM187.749 61.5238L187.76 62.5237L204.335 62.3389L204.324 61.339L204.313 60.339L187.738 60.5239L187.749 61.5238ZM204.324 61.339L203.324 61.3501L203.422 70.1176L204.422 70.1064L205.422 70.0953L205.324 61.3278L204.324 61.339ZM204.422 70.1064L204.411 69.1065L176.892 69.4134L176.904 70.4133L176.915 71.4133L204.433 71.1064L204.422 70.1064ZM176.904 70.4133L177.904 70.4022L177.403 25.477L176.403 25.4881L175.403 25.4993L175.904 70.4245L176.904 70.4133ZM176.403 25.4881L176.414 26.488L203.932 26.1811L203.921 25.1812L203.91 24.1813L176.391 24.4882L176.403 25.4881ZM203.921 25.1812L202.921 25.1924L203.019 33.9598L204.019 33.9487L205.019 33.9375L204.921 25.1701L203.921 25.1812ZM204.019 33.9487L204.008 32.9487L187.433 33.1336L187.444 34.1335L187.455 35.1335L204.03 34.9486L204.019 33.9487Z" fill="black" mask="url(#path-7-outside-4_268_1421)"/>
<mask id="path-9-outside-5_268_1421" maskUnits="userSpaceOnUse" x="213.769" y="23.0194" width="48.409" height="50.3498" fill="black">
<rect fill="white" x="213.769" y="23.0194" width="48.409" height="50.3498"/>
<path d="M215.595 47.5134C215.725 43.078 216.799 39.161 218.819 35.7624C220.841 32.3212 223.585 29.6908 227.053 27.8712C230.565 26.0101 234.496 25.1431 238.846 25.27C244.177 25.4255 248.699 26.9661 252.413 29.8916C256.127 32.8171 258.552 36.7295 259.69 41.6288L247.663 41.2779C246.822 39.3753 245.584 37.9092 243.95 36.8798C242.357 35.8516 240.517 35.307 238.427 35.246C235.058 35.1477 232.294 36.2409 230.136 38.5256C227.977 40.8103 226.841 43.9145 226.727 47.8382C226.612 51.7618 227.566 54.927 229.587 57.3336C231.608 59.7402 234.304 60.9927 237.673 61.091C239.763 61.152 241.632 60.7156 243.281 59.782C244.973 58.8496 246.294 57.4582 247.245 55.6078L259.272 55.9587C257.85 60.7833 255.201 64.5476 251.323 67.2517C247.446 69.9131 242.843 71.1661 237.511 71.0105C233.161 70.8836 229.287 69.8102 225.888 67.7902C222.534 65.7288 219.947 62.9429 218.129 59.4324C216.31 55.9218 215.466 51.9488 215.595 47.5134Z"/>
</mask>
<path d="M218.819 35.7624L219.679 36.2734L219.682 36.2689L218.819 35.7624ZM227.053 27.8712L227.518 28.7567L227.521 28.7548L227.053 27.8712ZM252.413 29.8916L253.032 29.1061L253.032 29.1061L252.413 29.8916ZM259.69 41.6288L259.661 42.6284L260.957 42.6662L260.664 41.4026L259.69 41.6288ZM247.663 41.2779L246.748 41.6821L247.003 42.2591L247.634 42.2775L247.663 41.2779ZM243.95 36.8798L243.407 37.7198L243.417 37.7259L243.95 36.8798ZM230.136 38.5256L230.863 39.2123L230.136 38.5256ZM229.587 57.3336L228.821 57.9768L229.587 57.3336ZM243.281 59.782L242.799 58.9061L242.789 58.9118L243.281 59.782ZM247.245 55.6078L247.274 54.6082L246.643 54.5899L246.355 55.151L247.245 55.6078ZM259.272 55.9587L260.231 56.2413L260.597 54.997L259.301 54.9591L259.272 55.9587ZM251.323 67.2517L251.889 68.0761L251.895 68.072L251.323 67.2517ZM225.888 67.7902L225.365 68.6422L225.371 68.6461L225.377 68.6498L225.888 67.7902ZM218.129 59.4324L219.017 58.9724L218.129 59.4324ZM215.595 47.5134L216.595 47.5426C216.72 43.2558 217.756 39.5086 219.679 36.2734L218.819 35.7624L217.96 35.2515C215.843 38.8133 214.73 42.9001 214.596 47.4842L215.595 47.5134ZM218.819 35.7624L219.682 36.2689C221.61 32.9855 224.218 30.4878 227.518 28.7567L227.053 27.8712L226.588 26.9857C222.952 28.8938 220.071 31.657 217.957 35.256L218.819 35.7624ZM227.053 27.8712L227.521 28.7548C230.866 26.9824 234.623 26.1472 238.817 26.2696L238.846 25.27L238.875 24.2704C234.369 24.1389 230.264 25.0379 226.585 26.9876L227.053 27.8712ZM238.846 25.27L238.817 26.2696C243.962 26.4197 248.27 27.9011 251.794 30.6771L252.413 29.8916L253.032 29.1061C249.128 26.031 244.392 24.4314 238.875 24.2704L238.846 25.27ZM252.413 29.8916L251.794 30.6771C255.317 33.4527 257.626 37.1619 258.716 41.855L259.69 41.6288L260.664 41.4026C259.478 36.2972 256.936 32.1816 253.032 29.1061L252.413 29.8916ZM259.69 41.6288L259.719 40.6292L247.692 40.2783L247.663 41.2779L247.634 42.2775L259.661 42.6284L259.69 41.6288ZM247.663 41.2779L248.577 40.8737C247.663 38.8037 246.299 37.1773 244.482 36.0336L243.95 36.8798L243.417 37.7259C244.87 38.6411 245.981 39.9468 246.748 41.6821L247.663 41.2779ZM243.95 36.8798L244.492 36.0397C242.731 34.9025 240.709 34.3122 238.456 34.2464L238.427 35.246L238.398 36.2456C240.324 36.3018 241.984 36.8007 243.407 37.7198L243.95 36.8798ZM238.427 35.246L238.456 34.2464C234.825 34.1405 231.778 35.3305 229.409 37.8389L230.136 38.5256L230.863 39.2123C232.809 37.1513 235.29 36.1549 238.398 36.2456L238.427 35.246ZM230.136 38.5256L229.409 37.8389C227.043 40.3432 225.847 43.7035 225.727 47.809L226.727 47.8382L227.726 47.8673C227.835 44.1255 228.912 41.2774 230.863 39.2123L230.136 38.5256ZM226.727 47.8382L225.727 47.809C225.607 51.9145 226.606 55.3388 228.821 57.9768L229.587 57.3336L230.353 56.6905C228.526 54.5151 227.617 51.6092 227.726 47.8673L226.727 47.8382ZM229.587 57.3336L228.821 57.9768C231.04 60.6191 234.013 61.9847 237.644 62.0906L237.673 61.091L237.702 60.0914C234.595 60.0008 232.176 58.8614 230.353 56.6905L229.587 57.3336ZM237.673 61.091L237.644 62.0906C239.896 62.1563 241.95 61.6849 243.774 60.6523L243.281 59.782L242.789 58.9118C241.314 59.7464 239.629 60.1476 237.702 60.0914L237.673 61.091ZM243.281 59.782L243.764 60.6578C245.644 59.6219 247.1 58.0779 248.134 56.0647L247.245 55.6078L246.355 55.151C245.488 56.8386 244.303 58.0773 242.799 58.9062L243.281 59.782ZM247.245 55.6078L247.216 56.6074L259.242 56.9583L259.272 55.9587L259.301 54.9591L247.274 54.6082L247.245 55.6078ZM259.272 55.9587L258.312 55.6761C256.951 60.2977 254.43 63.866 250.751 66.4314L251.323 67.2517L251.895 68.072C255.972 65.2292 258.75 61.269 260.231 56.2413L259.272 55.9587ZM251.323 67.2517L250.757 66.4273C247.078 68.9529 242.689 70.1612 237.541 70.011L237.511 71.0105L237.482 72.0101C242.996 72.171 247.815 70.8733 251.889 68.0761L251.323 67.2517ZM237.511 71.0105L237.541 70.011C233.343 69.8885 229.637 68.8552 226.399 66.9306L225.888 67.7902L225.377 68.6498C228.936 70.7652 232.98 71.8787 237.482 72.0101L237.511 71.0105ZM225.888 67.7902L226.412 66.9382C223.213 64.9724 220.752 62.3223 219.017 58.9724L218.129 59.4324L217.241 59.8923C219.143 63.5635 221.855 66.4853 225.365 68.6422L225.888 67.7902ZM218.129 59.4324L219.017 58.9724C217.286 55.6305 216.47 51.8293 216.595 47.5426L215.595 47.5134L214.596 47.4842C214.462 52.0684 215.335 56.2131 217.241 59.8923L218.129 59.4324Z" fill="black" mask="url(#path-9-outside-5_268_1421)"/>
<mask id="path-11-outside-6_268_1421" maskUnits="userSpaceOnUse" x="266.613" y="25.8728" width="41.2284" height="49.5694" fill="black">
<rect fill="white" x="266.613" y="25.8728" width="41.2284" height="49.5694"/>
<path d="M306.058 29.5082L305.438 38.2542L293.564 37.4125L291.007 73.482L280.09 72.7081L282.647 36.6386L270.773 35.7968L271.393 27.0508L306.058 29.5082Z"/>
</mask>
<path d="M306.058 29.5082L307.056 29.5789L307.126 28.5814L306.129 28.5107L306.058 29.5082ZM305.438 38.2542L305.368 39.2517L306.365 39.3225L306.436 38.325L305.438 38.2542ZM293.564 37.4125L293.635 36.415L292.637 36.3443L292.567 37.3418L293.564 37.4125ZM291.007 73.482L290.936 74.4795L291.934 74.5502L292.005 73.5527L291.007 73.482ZM280.09 72.7081L279.093 72.6374L279.022 73.6349L280.02 73.7056L280.09 72.7081ZM282.647 36.6386L283.645 36.7093L283.716 35.7118L282.718 35.6411L282.647 36.6386ZM270.773 35.7968L269.776 35.7261L269.705 36.7236L270.703 36.7943L270.773 35.7968ZM271.393 27.0508L271.464 26.0533L270.466 25.9826L270.396 26.9801L271.393 27.0508ZM306.058 29.5082L305.061 29.4375L304.441 38.1835L305.438 38.2542L306.436 38.325L307.056 29.5789L306.058 29.5082ZM305.438 38.2542L305.509 37.2567L293.635 36.415L293.564 37.4125L293.493 38.41L305.368 39.2517L305.438 38.2542ZM293.564 37.4125L292.567 37.3418L290.01 73.4112L291.007 73.482L292.005 73.5527L294.562 37.4832L293.564 37.4125ZM291.007 73.482L291.078 72.4845L280.161 71.7106L280.09 72.7081L280.02 73.7056L290.936 74.4795L291.007 73.482ZM280.09 72.7081L281.088 72.7788L283.645 36.7093L282.647 36.6386L281.65 36.5679L279.093 72.6374L280.09 72.7081ZM282.647 36.6386L282.718 35.6411L270.844 34.7993L270.773 35.7968L270.703 36.7943L282.577 37.6361L282.647 36.6386ZM270.773 35.7968L271.771 35.8675L272.391 27.1215L271.393 27.0508L270.396 26.9801L269.776 35.7261L270.773 35.7968ZM271.393 27.0508L271.323 28.0483L305.988 30.5057L306.058 29.5082L306.129 28.5107L271.464 26.0533L271.393 27.0508Z" fill="black" mask="url(#path-11-outside-6_268_1421)"/>
<mask id="path-13-outside-7_268_1421" maskUnits="userSpaceOnUse" x="311.354" y="29.3775" width="35.8149" height="50.0257" fill="black">
<rect fill="white" x="311.354" y="29.3775" width="35.8149" height="50.0257"/>
<path d="M328.138 40.5327L327.173 49.5694L341.746 51.1254L340.85 59.5257L326.276 57.9696L325.23 67.7699L341.712 69.5298L340.781 78.2483L313.417 75.3264L318.187 30.6524L345.551 33.5742L344.62 42.2927L328.138 40.5327Z"/>
</mask>
<path d="M328.138 40.5327L328.244 39.5384L327.25 39.4322L327.144 40.4266L328.138 40.5327ZM327.173 49.5694L326.179 49.4632L326.073 50.4576L327.067 50.5637L327.173 49.5694ZM341.746 51.1254L342.741 51.2316L342.847 50.2373L341.853 50.1311L341.746 51.1254ZM340.85 59.5257L340.743 60.52L341.738 60.6262L341.844 59.6319L340.85 59.5257ZM326.276 57.9696L326.383 56.9753L325.388 56.8691L325.282 57.8635L326.276 57.9696ZM325.23 67.7699L324.236 67.6638L324.129 68.6581L325.124 68.7643L325.23 67.7699ZM341.712 69.5298L342.707 69.636L342.813 68.6417L341.818 68.5355L341.712 69.5298ZM340.781 78.2483L340.675 79.2426L341.669 79.3488L341.776 78.3544L340.781 78.2483ZM313.417 75.3264L312.422 75.2202L312.316 76.2146L313.311 76.3208L313.417 75.3264ZM318.187 30.6524L318.293 29.658L317.299 29.5518L317.193 30.5462L318.187 30.6524ZM345.551 33.5742L346.546 33.6804L346.652 32.686L345.658 32.5799L345.551 33.5742ZM344.62 42.2927L344.514 43.287L345.509 43.3932L345.615 42.3988L344.62 42.2927ZM328.138 40.5327L327.144 40.4266L326.179 49.4632L327.173 49.5694L328.168 49.6756L329.133 40.6389L328.138 40.5327ZM327.173 49.5694L327.067 50.5637L341.64 52.1198L341.746 51.1254L341.853 50.1311L327.279 48.575L327.173 49.5694ZM341.746 51.1254L340.752 51.0193L339.855 59.4195L340.85 59.5257L341.844 59.6319L342.741 51.2316L341.746 51.1254ZM340.85 59.5257L340.956 58.5313L326.383 56.9753L326.276 57.9696L326.17 58.964L340.743 60.52L340.85 59.5257ZM326.276 57.9696L325.282 57.8635L324.236 67.6638L325.23 67.7699L326.224 67.8761L327.271 58.0758L326.276 57.9696ZM325.23 67.7699L325.124 68.7643L341.606 70.5242L341.712 69.5298L341.818 68.5355L325.336 66.7756L325.23 67.7699ZM341.712 69.5298L340.718 69.4237L339.787 78.1421L340.781 78.2483L341.776 78.3544L342.707 69.636L341.712 69.5298ZM340.781 78.2483L340.887 77.2539L313.523 74.3321L313.417 75.3264L313.311 76.3208L340.675 79.2426L340.781 78.2483ZM313.417 75.3264L314.411 75.4326L319.181 30.7585L318.187 30.6524L317.193 30.5462L312.422 75.2202L313.417 75.3264ZM318.187 30.6524L318.081 31.6467L345.445 34.5686L345.551 33.5742L345.658 32.5799L318.293 29.658L318.187 30.6524ZM345.551 33.5742L344.557 33.468L343.626 42.1865L344.62 42.2927L345.615 42.3988L346.546 33.6804L345.551 33.5742ZM344.62 42.2927L344.727 41.2983L328.244 39.5384L328.138 40.5327L328.032 41.5271L344.514 43.287L344.62 42.2927Z" fill="black" mask="url(#path-13-outside-7_268_1421)"/>
<mask id="path-15-outside-8_268_1421" maskUnits="userSpaceOnUse" x="348.009" y="33.4544" width="55.3267" height="53.6395" fill="black">
<rect fill="white" x="348.009" y="33.4544" width="55.3267" height="53.6395"/>
<path d="M381.896 75.9122L365.307 73.4684L361.491 80.9279L350.157 79.2583L372.788 37.1792L385.324 39.026L394.859 85.8435L383.399 84.1552L381.896 75.9122ZM380.341 67.144L377.23 50.0601L369.387 65.5303L380.341 67.144Z"/>
</mask>
<path d="M381.896 75.9122L382.88 75.7328L382.751 75.0274L382.042 74.9228L381.896 75.9122ZM365.307 73.4684L365.453 72.4791L364.743 72.3745L364.417 73.013L365.307 73.4684ZM361.491 80.9279L361.345 81.9172L362.055 82.0217L362.381 81.3833L361.491 80.9279ZM350.157 79.2583L349.277 78.7846L348.602 80.0399L350.012 80.2476L350.157 79.2583ZM372.788 37.1792L372.933 36.1898L372.239 36.0876L371.907 36.7055L372.788 37.1792ZM385.324 39.026L386.304 38.8264L386.164 38.1389L385.47 38.0367L385.324 39.026ZM394.859 85.8435L394.713 86.8328L396.123 87.0405L395.839 85.6439L394.859 85.8435ZM383.399 84.1552L382.415 84.3345L382.543 85.04L383.253 85.1445L383.399 84.1552ZM380.341 67.144L380.195 68.1333L381.575 68.3365L381.325 66.9648L380.341 67.144ZM377.23 50.0601L378.214 49.8809L377.681 46.9579L376.338 49.6079L377.23 50.0601ZM369.387 65.5303L368.495 65.0782L367.867 66.3172L369.242 66.5196L369.387 65.5303ZM381.896 75.9122L382.042 74.9228L365.453 72.4791L365.307 73.4684L365.161 74.4577L381.75 76.9015L381.896 75.9122ZM365.307 73.4684L364.417 73.013L360.601 80.4725L361.491 80.9279L362.381 81.3833L366.197 73.9238L365.307 73.4684ZM361.491 80.9279L361.637 79.9386L350.303 78.269L350.157 79.2583L350.012 80.2476L361.345 81.9172L361.491 80.9279ZM350.157 79.2583L351.038 79.7319L373.668 37.6528L372.788 37.1792L371.907 36.7055L349.277 78.7846L350.157 79.2583ZM372.788 37.1792L372.642 38.1685L385.179 40.0153L385.324 39.026L385.47 38.0367L372.933 36.1898L372.788 37.1792ZM385.324 39.026L384.344 39.2255L393.879 86.043L394.859 85.8435L395.839 85.6439L386.304 38.8264L385.324 39.026ZM394.859 85.8435L395.005 84.8541L383.544 83.1659L383.399 84.1552L383.253 85.1445L394.713 86.8328L394.859 85.8435ZM383.399 84.1552L384.382 83.9758L382.88 75.7328L381.896 75.9122L380.912 76.0915L382.415 84.3345L383.399 84.1552ZM380.341 67.144L381.325 66.9648L378.214 49.8809L377.23 50.0601L376.246 50.2393L379.357 67.3231L380.341 67.144ZM377.23 50.0601L376.338 49.6079L368.495 65.0782L369.387 65.5303L370.279 65.9825L378.122 50.5122L377.23 50.0601ZM369.387 65.5303L369.242 66.5196L380.195 68.1333L380.341 67.144L380.487 66.1546L369.533 64.541L369.387 65.5303Z" fill="black" mask="url(#path-15-outside-8_268_1421)"/>
</svg>
